# AST/ASF file generated using VICON BodyLanguage
# -----------------------------------------------
:version 1.10
:name VICON
:units
  mass 1.0
  length 0.45
  angle deg
:documentation
   .ast/.asf automatically generated from VICON data using
   VICON BodyBuilder and BodyLanguage model FoxedUp or BRILLIANT.MOD
:root
   order TX TY TZ RX RY RZ
   axis XYZ
   position 0 0 0  
   orientation 0 0 0 
:bonedata
  begin
     id 1 
     name lhipjoint
     direction 0.578396 -0.714046 0.394458 
     length 2.21935 
     axis 0 0 0  XYZ
  end
  begin
     id 2 
     name lfemur
     direction 0.34202 -0.939693 0  
     length 6.39105  
     axis 0 0 20  XYZ
    dof rx ry rz
    limits (-160.0 20.0)
           (-70.0 70.0)
           (-60.0 70.0)
  end
  begin
     id 3 
     name ltibia
     direction 0.34202 -0.939693 0   
     length 6.99037   
     axis 0 0 20   XYZ
    dof rx
    limits (-10.0 170.0)
  end
  begin
     id 4 
     name lfoot
     direction 0.0582372 -0.160005 0.985397   
     length 2.06111   
     axis -90 7.62852e-016 20   XYZ
    dof rx rz
    limits (-45.0 90.0)
           (-70.0 20.0)
  end
  begin
     id 5 
     name ltoes
     direction 1.53556e-011 -4.21875e-011 1   
     length 1.04074   
     axis -90 7.62852e-016 20   XYZ
    dof rx
    limits (-90.0 20.0)
  end
  begin
     id 6 
     name rhipjoint
     direction -0.558179 -0.726269 0.40121   
     length 2.182  
     axis 0 0 0  XYZ 
  end
  begin
     id 7 
     name rfemur
     direction -0.34202 -0.939693 0   
     length 6.51172   
     axis 0 0 -20   XYZ
    dof rx ry rz
    limits (-160.0 20.0)
           (-70.0 70.0)
           (-70.0 60.0)
  end
  begin
     id 8 
     name rtibia
     direction -0.34202 -0.939693 0   
     length 7.02607   
     axis 0 0 -20   XYZ
    dof rx
    limits (-10.0 170.0)
 end
 begin
     id 9 
     name rfoot
     direction -0.0788856 -0.216737 0.973038   
     length 1.96734  
     axis -90 -7.62852e-016 -20   XYZ
    dof rx rz
    limits (-45.0 90.0)
           (-20.0 70.0)
  end
  begin
     id 10 
     name rtoes
     direction -1.53567e-011 -4.21783e-011 1   
     length 0.990825   
     axis -90 -7.62852e-016 -20   XYZ
    dof rx
    limits (-90.0 20.0)
  end
  begin
     id 11 
     name lowerback
     direction 0.00668177 0.999323 -0.0361741   
     length 1.7655   
     axis 0 0 0   XYZ
    dof rx ry rz
    limits (-20.0 45.0)
           (-30.0 30.0)
           (-30.0 30.0)
  end
  begin
     id 12 
     name upperback
     direction -0.00222086 0.99851 0.0545167   
     length 1.74912   
     axis 0 0 0   XYZ
    dof rx ry rz
    limits (-20.0 45.0)
           (-30.0 30.0)
           (-30.0 30.0)
  end
  begin
     id 13 
     name thorax
     direction -0.00733971 0.997496 0.0703443   
     length 1.75715   
     axis 0 0 0   XYZ
    dof rx ry rz
    limits (-20.0 45.0)
           (-30.0 30.0)
           (-30.0 30.0)
  end
  begin
     id 14 
     name lowerneck
     direction 0.0279797 0.994795 0.0979765   
     length 1.46939   
     axis 0 0 0   XYZ
    dof rx ry rz
    limits (-20.0 45.0)
           (-30.0 30.0)
           (-30.0 30.0)
  end
  begin
     id 15 
     name upperneck
     direction 0.00339187 0.976776 -0.214238   
     length 1.48018   
     axis 0 0 0   XYZ
    dof rx ry rz
    limits (-20.0 45.0)
           (-30.0 30.0)
           (-30.0 30.0)
  end
  begin
     id 16
     name head
     direction -0.00263506 0.996603 -0.0823096  
     length 1.4976  
     axis 0 0 0   XYZ
    dof rx ry rz
    limits (-20.0 45.0)
           (-30.0 30.0)
           (-30.0 30.0)
  end
  begin
     id 17 
     name lclavicle
     direction 0.894044 0.44508 -0.0508781  
     length 3.03024  
     axis 0 0 0   XYZ
    dof ry rz
    limits (-20.0 10.0)
           (0.0 20.0)
  end
  begin
     id 18 
     name lhumerus
     direction 1 -4.48961e-011 -2.39475e-018   
     length 4.4661   
     axis 180 -30 -90   XYZ
    dof rx ry rz
    limits (-60.0 90.0)
           (-90.0 90.0)
           (-90.0 90.0)
  end
  begin
     id 19
     name lradius
     direction 1 -4.48961e-011 9.29328e-028   
     length 3.41414   
     axis 180 -30 -90   XYZ
    dof rx
    limits (-10.0 170.0)
  end
  begin
     id 20
     name lwrist
     direction 1 -4.48985e-011 1.53461e-026   
     length 1.70707   
     axis -1.09697e-014 90 90   XYZ
    dof ry
    limits (-180.0 0.0)
 end
  begin
     id 21 
     name lhand
     direction 1 -4.48966e-011 3.06923e-026   
     length 0.328298   
     axis -1.95843e-014 90 90   XYZ
    dof rx rz
    limits (-90.0 90.0)
           (-45.0 45.0)
  end
  begin
     id 22 
     name lfingers
     direction 1 -4.48893e-011 6.13845e-026   
     length 0.264682   
     axis -3.91686e-014 90 90   XYZ
    dof rx
    limits (0.0 90.0)
  end
  begin
     id 23
     name lthumb
     direction 0.707107 -6.34876e-011 0.707107   
     length 0.380032   
     axis -90 45 2.85299e-015   XYZ
    dof rx rz
    limits (-45.0 45.0)
           (-45.0 45.0)
  end
  begin
     id 24 
     name rclavicle
     direction -0.936955 0.347862 -0.0332887   
     length 3.26927  
     axis 0 0 0   XYZ 
    dof ry rz
    limits (-10.0 20.0)
           (-20.0 0.0)
  end
  begin
     id 25 
     name rhumerus
     direction -1 -4.4896e-011 1.78637e-018  
     length 4.40431   
     axis 180 30 90   XYZ
    dof rx ry rz
    limits (-90.0 60.0)
           (-90.0 90.0)
           (-90.0 90.0)
  end
  begin
     id 26 
     name rradius
     direction -1 -4.48955e-011 9.34036e-027   
     length 3.04688   
     axis 180 30 90   XYZ
    dof rx
    limits (-10.0 170.0)
  end
  begin
     id 27 
     name rwrist
     direction -1 -4.49011e-011 1.53461e-026   
     length 1.52344   
     axis -1.09697e-014 -90 -90   XYZ
    dof ry
    limits (-180.0 0.0)
  end
  begin
     id 28
     name rhand
     direction -1 -4.48834e-011 3.06923e-026   
     length 0.500489   
     axis -1.95843e-014 -90 -90   XYZ
    dof rx rz
    limits (-90.0 90.0)
           (-45.0 45.0)
  end
  begin
     id 29
     name rfingers
     direction -1 -4.48967e-011 6.13845e-026   
     length 0.403507   
     axis -3.91686e-014 -90 -90   XYZ
    dof rx
    limits (0.0 90.0)
  end
  begin
     id 30
     name rthumb
     direction -0.707107 -6.34826e-011 0.707107   
     length 0.579358   
     axis -90 -45 -2.85299e-015   XYZ
    dof rx rz
    limits (-45.0 45.0)
           (-45.0 45.0)
  end
:hierarchy
  begin
    root lhipjoint rhipjoint lowerback
    lhipjoint lfemur
    lfemur ltibia
    ltibia lfoot
    lfoot ltoes
    rhipjoint rfemur
    rfemur rtibia
    rtibia rfoot
    rfoot rtoes
    lowerback upperback
    upperback thorax
    thorax lowerneck lclavicle rclavicle
    lowerneck upperneck
    upperneck head
    lclavicle lhumerus
    lhumerus lradius
    lradius lwrist
    lwrist lhand lthumb
    lhand lfingers
    rclavicle rhumerus
    rhumerus rradius
    rradius rwrist
    rwrist rhand rthumb
    rhand rfingers
  end

#!OML:ASF H:\IndianDance\Patient Classification 1\Patient 1\Session 1\dancer.ASF
:FULLY-SPECIFIED
:DEGREES
843
root 4.28693 15.1211 -7.96469 547.391 -58.7191 -197.721
lowerback 22.1584 3.0957 -5.04807
upperback -1.70995 1.86449 -4.5556
thorax -14.5241 0.900315 -2.95537
lowerneck -10.5531 -13.4227 -9.85675
upperneck 15.46 -18.5243 8.47617
head 8.23039 -8.81581 2.19123
rclavicle -1.86733e-014 3.45885e-014
rhumerus -5.9277 68.7566 -45.0256
rradius 119.664
rwrist -37.7448
rhand -29.4389 19.3864
rfingers 7.12502
rthumb -2.7756 -10.5752
lclavicle -1.86733e-014 3.45885e-014
lhumerus -5.51347 52.4351 -4.65147
lradius 30.9772
lwrist 47.0485
lhand -10.8034 47.328
lfingers 7.12502
lthumb 15.2099 -283.251
rfemur -118.695 -17.6117 70.3157
rtibia 143.141
rfoot 53.5828 -12.3028
rtoes 41.678
lfemur 0.757642 21.8846 -27.3125
ltibia 32.2818
lfoot -18.9664 12.3329
ltoes -2.132
844
root 4.27544 15.0837 -7.96421 547.618 -59.0638 -198.335
lowerback 22.3054 2.99787 -5.19756
upperback -1.58721 1.64726 -4.72411
thorax -14.4674 0.796815 -2.98883
lowerneck -10.4338 -13.4369 -9.93992
upperneck 15.4985 -18.5652 8.55098
head 8.24228 -8.83869 2.22633
rclavicle -7.92157e-014 -1.98785e-014
rhumerus -7.47701 67.7715 -46.7211
rradius 120.885
rwrist -43.9374
rhand -28.0847 16.3182
rfingers 7.12502
rthumb -1.46771 -13.6565
lclavicle -7.92157e-014 -1.98785e-014
lhumerus -5.71146 49.9861 -4.29089
lradius 32.1233
lwrist 47.7795
lhand -11.7484 47.7253
lfingers 7.12502
lthumb 14.2994 -282.787
rfemur -118.543 -18.0333 69.965
rtibia 142.92
rfoot 53.1548 -11.8633
rtoes 41.3811
lfemur 0.774321 22.0874 -27.3206
ltibia 33.1003
lfoot -19.3251 11.9112
ltoes -2.66939
845
root 4.26417 15.0464 -7.96525 547.765 -59.4497 -198.746
lowerback 22.3573 2.87971 -5.24909
upperback -1.49166 1.44725 -4.85639
thorax -14.3848 0.698048 -3.03835
lowerneck -10.2943 -13.4629 -9.9975
upperneck 15.5315 -18.6159 8.56892
head 8.24129 -8.8702 2.24047
rclavicle 3.19298e-014 -3.1408e-014
rhumerus -8.95936 66.6352 -48.2734
rradius 122.229
rwrist -50.4489
rhand -26.8727 13.6244
rfingers 7.12502
rthumb -0.29715 -16.3552
lclavicle 3.19298e-014 -3.1408e-014
lhumerus -5.91517 47.4477 -3.84066
lradius 33.5868
lwrist 48.6492
lhand -12.812 48.0222
lfingers 7.12502
lthumb 13.2744 -282.421
rfemur -118.264 -18.7866 69.5113
rtibia 142.558
rfoot 52.6969 -10.8151
rtoes 40.6677
lfemur 0.643342 22.307 -27.2257
ltibia 34.0062
lfoot -19.7292 11.4571
ltoes -3.10788
846
root 4.25338 15.0095 -7.96773 547.81 -59.863 -198.935
lowerback 22.3242 2.74558 -5.20572
upperback -1.42556 1.26922 -4.94975
thorax -14.2857 0.606702 -3.10206
lowerneck -10.1543 -13.4964 -10.0221
upperneck 15.5794 -18.6712 8.52612
head 8.23612 -8.90682 2.23035
rclavicle 2.49723e-014 1.90833e-014
rhumerus -10.3406 65.3333 -49.6593
rradius 123.634
rwrist -57.0077
rhand -25.8246 11.3712
rfingers 7.12502
rthumb 0.71514 -18.6073
lclavicle 2.49723e-014 1.90833e-014
lhumerus -6.16071 44.8104 -3.33025
lradius 35.3922
lwrist 49.5905
lhand -13.9202 48.2555
lfingers 7.12502
lthumb 12.206 -282.121
rfemur -117.829 -19.8221 68.938
rtibia 142.048
rfoot 52.145 -9.37376
rtoes 39.6947
lfemur 0.380439 22.556 -27.0208
ltibia 34.9789
lfoot -20.1724 10.9826
ltoes -3.46387
847
root 4.24315 14.973 -7.97152 547.762 -60.2945 -198.931
lowerback 22.2331 2.60463 -5.09546
upperback -1.39367 1.11436 -5.00285
thorax -14.1927 0.525345 -3.16518
lowerneck -10.0228 -13.5374 -10.0129
upperneck 15.6565 -18.7316 8.41747
head 8.23237 -8.94853 2.19329
rclavicle -9.98893e-015 -5.80451e-014
rhumerus -11.6277 63.8624 -50.8764
rradius 125.043
rwrist -63.3187
rhand -24.7787 9.45634
rfingers 7.12502
rthumb 1.72526 -20.5164
lclavicle -9.98893e-015 -5.80451e-014
lhumerus -6.46562 42.0798 -2.76999
lradius 37.5358
lwrist 50.4758
lhand -14.9651 48.4359
lfingers 7.12502
lthumb 11.1984 -281.883
rfemur -117.242 -21.0768 68.2173
rtibia 141.404
rfoot 51.444 -7.5386
rtoes 38.4362
lfemur 0.00811253 22.8337 -26.7254
ltibia 36.0038
lfoot -20.6477 10.4987
ltoes -3.75425
848
root 4.23371 14.9368 -7.9767 547.641 -60.738 -198.771
lowerback 22.0942 2.45927 -4.93374
upperback -1.38832 0.977519 -5.02836
thorax -14.1028 0.451499 -3.23196
lowerneck -9.91662 -13.5829 -9.96015
upperneck 15.7737 -18.7963 8.25304
head 8.23662 -8.99304 2.12978
rclavicle 8.57259e-014 4.77083e-015
rhumerus -12.8002 62.2175 -51.9191
rradius 126.408
rwrist -69.1475
rhand -23.658 7.73942
rfingers 7.12502
rthumb 2.80762 -22.2218
lclavicle 8.57259e-014 4.77083e-015
lhumerus -6.83081 39.2733 -2.18392
lradius 39.9981
lwrist 51.2176
lhand -15.8921 48.5535
lfingers 7.12502
lthumb 10.3043 -281.719
rfemur -116.503 -22.4604 67.3232
rtibia 140.634
rfoot 50.5348 -5.48756
rtoes 37.0563
lfemur -0.454686 23.1409 -26.3581
ltibia 37.0732
lfoot -21.1464 10.005
ltoes -3.98688
